<svg width="1200" height="620" viewBox="0 0 1200 620" xmlns="http://www.w3.org/2000/svg">
  <defs><filter id="glow"><feGaussianBlur stdDeviation="2.5" result="b"/><feMerge><feMergeNode in="b"/><feMergeNode in="SourceGraphic"/></feMerge></filter></defs>
  <rect width="1200" height="620" fill="none"/>
  <path d="M410 454c90-55 172-25 235-76 62-50 126-81 221-28 65 36 115 33 197 4" stroke="#e4ef16" stroke-width="9" stroke-linecap="round" fill="none" opacity=".25"/>
  <path d="M425 512h72m54 0h48m70 0h92m70 0h56m80 0h96" stroke="#fff" stroke-width="6" stroke-linecap="round" opacity=".12"/>
  <g transform="translate(710 168) scale(1.03)" stroke="#e4ef16" stroke-width="16" stroke-linecap="round" stroke-linejoin="round" fill="none" opacity=".82" filter="url(#glow)">
    <circle cx="105" cy="255" r="78" opacity=".42"/>
    <circle cx="360" cy="255" r="78" opacity=".42"/>
    <path d="M105 255l105-126h86l64 126H105l148-4 107-96"/>
    <path d="M210 129l-40-54 80 5"/>
    <path d="M302 128l48-4"/>
  </g>
  <g transform="translate(835 70) scale(1.03)" fill="#e4ef16" opacity=".82" filter="url(#glow)">
    <circle cx="150" cy="48" r="23"/>
    <path d="M126 82c30-19 72-10 96 20l38 48c8 10 6 25-4 33-11 8-25 6-33-4l-24-31-59 48 68 32c13 6 19 21 13 34-6 12-21 18-34 12l-95-44c-17-8-21-30-8-43l51-52-62 31-45 57c-9 11-25 13-36 4-11-9-13-25-4-36l52-66c4-5 9-9 15-12z"/>
  </g>
</svg>
