<svg width="900" height="900" viewBox="0 0 900 900" fill="none" xmlns="http://www.w3.org/2000/svg">
  <defs>
    <linearGradient id="runnerGlow" x1="160" y1="60" x2="760" y2="840" gradientUnits="userSpaceOnUse">
      <stop stop-color="#e4ef16" stop-opacity="0.95"/>
      <stop offset="0.45" stop-color="#e4ef16" stop-opacity="0.55"/>
      <stop offset="1" stop-color="#050505" stop-opacity="0"/>
    </linearGradient>
    <radialGradient id="sun" cx="0" cy="0" r="1" gradientUnits="userSpaceOnUse" gradientTransform="translate(670 250) rotate(90) scale(320)">
      <stop stop-color="#e4ef16" stop-opacity="0.42"/>
      <stop offset="0.55" stop-color="#e4ef16" stop-opacity="0.12"/>
      <stop offset="1" stop-color="#050505" stop-opacity="0"/>
    </radialGradient>
    <filter id="blurGlow" x="-40%" y="-40%" width="180%" height="180%">
      <feGaussianBlur stdDeviation="8"/>
    </filter>
  </defs>

  <rect width="900" height="900" fill="transparent"/>
  <circle cx="670" cy="250" r="320" fill="url(#sun)"/>

  <path d="M70 760 C170 670, 240 675, 335 615 C445 545, 575 548, 830 360"
        stroke="#e4ef16" stroke-opacity="0.18" stroke-width="9" stroke-linecap="round" filter="url(#blurGlow)"/>
  <path d="M60 770 C180 690, 250 692, 350 632 C470 560, 600 565, 845 388"
        stroke="#e4ef16" stroke-opacity="0.22" stroke-width="3" stroke-linecap="round"/>

  <g opacity="0.92">
    <circle cx="555" cy="154" r="44" fill="url(#runnerGlow)"/>
    <path d="M515 223 C560 204, 598 224, 628 268 C652 304, 673 340, 718 359"
          stroke="url(#runnerGlow)" stroke-width="42" stroke-linecap="round" stroke-linejoin="round"/>
    <path d="M610 278 C565 328, 520 370, 482 432"
          stroke="url(#runnerGlow)" stroke-width="45" stroke-linecap="round" stroke-linejoin="round"/>
    <path d="M484 432 C530 475, 565 515, 606 590"
          stroke="url(#runnerGlow)" stroke-width="44" stroke-linecap="round" stroke-linejoin="round"/>
    <path d="M606 590 C642 650, 666 699, 715 768"
          stroke="url(#runnerGlow)" stroke-width="38" stroke-linecap="round" stroke-linejoin="round"/>
    <path d="M486 434 C408 438, 354 474, 298 548"
          stroke="url(#runnerGlow)" stroke-width="43" stroke-linecap="round" stroke-linejoin="round"/>
    <path d="M298 548 C245 616, 196 668, 130 738"
          stroke="url(#runnerGlow)" stroke-width="35" stroke-linecap="round" stroke-linejoin="round"/>
    <path d="M615 262 C572 306, 523 308, 456 287"
          stroke="url(#runnerGlow)" stroke-width="33" stroke-linecap="round" stroke-linejoin="round"/>
    <path d="M454 288 C402 268, 365 253, 314 224"
          stroke="url(#runnerGlow)" stroke-width="27" stroke-linecap="round" stroke-linejoin="round"/>
    <path d="M640 296 C684 274, 716 244, 759 195"
          stroke="url(#runnerGlow)" stroke-width="27" stroke-linecap="round" stroke-linejoin="round"/>
  </g>

  <g opacity="0.35">
    <path d="M100 815 C220 760, 330 760, 465 710 C605 660, 715 650, 860 602"
          stroke="#e4ef16" stroke-opacity="0.18" stroke-width="70" stroke-linecap="round"/>
    <path d="M85 835 C230 780, 345 775, 490 724 C620 679, 740 668, 870 620"
          stroke="#050505" stroke-opacity="0.35" stroke-width="42" stroke-linecap="round"/>
  </g>
</svg>
