<svg width="1200" height="620" viewBox="0 0 1200 620" xmlns="http://www.w3.org/2000/svg">
  <defs><filter id="glow"><feGaussianBlur stdDeviation="2.5" result="b"/><feMerge><feMergeNode in="b"/><feMergeNode in="SourceGraphic"/></feMerge></filter></defs>
  <rect width="1200" height="620" fill="none"/>
  <path d="M390 455 575 250l115 125 95-150 255 230z" fill="#e4ef16" opacity=".12"/>
  <path d="M470 455c95-92 171-128 260-110 83 17 132 99 285 74" fill="none" stroke="#e4ef16" stroke-width="9" stroke-linecap="round" opacity=".24"/>
  <path d="M440 509c140-44 312-33 548-14" fill="none" stroke="#fff" stroke-width="5" opacity=".12"/>
  <g transform="translate(772 145) rotate(-8) scale(1.05)" fill="#e4ef16" opacity=".86" filter="url(#glow)">
    <circle cx="140" cy="42" r="23"/>
    <path d="M126 73c25-14 55-6 70 18l25 39c7 11 4 25-7 32-10 6-24 3-31-7l-15-23-33 68 48 39c10 8 13 22 6 33l-48 81c-7 13-23 17-36 10-12-7-16-23-9-35l36-62-45-37-30 54 48 45c11 10 11 27 1 37-10 11-27 11-38 1l-66-62c-9-9-12-23-6-35l65-135-47 24-35 51c-8 12-24 15-36 7-12-8-15-24-7-36l42-62c4-6 9-10 15-13z"/>
  </g>
</svg>
