<svg xmlns="http://www.w3.org/2000/svg" viewBox="0 0 128 128">
<rect width="128" height="128" rx="28" fill="#071013"/>
<circle cx="64" cy="64" r="52" fill="rgba(228,239,22,.08)" stroke="#e4ef16" stroke-opacity=".35" stroke-width="2"/>
<path d="M64 24v82M41 38c-9 16-14 34-14 52M87 38c9 16 14 34 14 52M39 54c13 7 37 7 50 0M36 69c15 7 41 7 56 0M34 88c18-10 42-10 60 0" fill="none" stroke="#f4f4d7" stroke-width="5" stroke-linecap="round" stroke-linejoin="round"/>
<path d="M51 43c2 21 7 39 13 55M77 43c-2 21-7 39-13 55" fill="none" stroke="#e4ef16" stroke-opacity=".45" stroke-width="3.5" stroke-linecap="round" stroke-linejoin="round"/>
</svg>