<svg xmlns="http://www.w3.org/2000/svg" viewBox="0 0 240 160">
<defs><radialGradient id="bg" cx="50%" cy="42%" r="72%"><stop offset="0" stop-color="#314022"/><stop offset=".55" stop-color="#111a13"/><stop offset="1" stop-color="#050809"/></radialGradient><filter id="g"><feGaussianBlur stdDeviation="3" result="b"/><feMerge><feMergeNode in="b"/><feMergeNode in="SourceGraphic"/></feMerge></filter></defs>
<rect width="240" height="160" rx="30" fill="url(#bg)"/>
<circle cx="120" cy="80" r="68" fill="rgba(228,239,22,.055)" stroke="#e4ef16" stroke-opacity=".20" stroke-width="2"/>
<text x="120" y="146" fill="#e4ef16" fill-opacity=".55" font-family="Arial, sans-serif" font-size="13" font-weight="900" text-anchor="middle" letter-spacing="2">BACK</text>
<path d="M120 19c-15 0-25 11-25 25v10c-35 13-57 43-66 90h182c-9-47-31-77-66-90V44c0-14-10-25-25-25z" fill="#1d2822" stroke="#f5f5dc" stroke-opacity=".50" stroke-width="4"/>
<path d="M61 137c17-57 37-83 59-83s42 26 59 83H61z" fill="#c78c62" opacity=".46"/>
<path d="M75 128c23-27 37-54 45-74 8 20 22 47 45 74-28-12-62-12-90 0z" fill="#f4ae70" opacity=".72"/>
<path d="M120 52v87M69 78c31 16 71 16 102 0M63 101c36 15 78 15 114 0M58 129c40-17 84-17 124 0" fill="none" stroke="#f5f5dc" stroke-width="4" stroke-linecap="round" opacity=".75"/>
<g filter="url(#g)"><path d="M86 64c5 30 16 54 34 75M154 64c-5 30-16 54-34 75" fill="none" stroke="#e4ef16" stroke-width="5" stroke-linecap="round"/></g>
</svg>