<svg xmlns="http://www.w3.org/2000/svg" viewBox="0 0 180 120">
<defs><radialGradient id="bg" cx="50%" cy="45%" r="70%"><stop offset="0" stop-color="#283520"/><stop offset="1" stop-color="#071013"/></radialGradient></defs>
<rect width="180" height="120" rx="22" fill="url(#bg)"/>
<g opacity=".98"><path d="M55 85c10-37 32-55 61-43 20 8 29 25 25 45" fill="none" stroke="#f5f5de" stroke-opacity=".55" stroke-width="17" stroke-linecap="round"/><path d="M70 92c27 15 56 9 76-13" fill="none" stroke="#f5f5de" stroke-opacity=".55" stroke-width="17" stroke-linecap="round"/><path d="M62 84c10-32 30-47 54-37 15 6 22 19 20 36" fill="none" stroke="#d09b71" stroke-width="14" stroke-linecap="round" opacity=".58"/><path d="M74 88c23 10 44 6 62-12" fill="none" stroke="#ffb56f" stroke-width="15" stroke-linecap="round" opacity=".72"/></g>
<g opacity=".9"><path d="M63 84c11-34 31-49 56-38M76 88c24 10 45 6 63-13" fill="none" stroke="#e4ef16" stroke-width="4" stroke-linecap="round"/></g>
</svg>