<svg xmlns="http://www.w3.org/2000/svg" viewBox="0 0 128 128">
<rect width="128" height="128" rx="28" fill="#071013"/>
<circle cx="64" cy="64" r="52" fill="rgba(228,239,22,.08)" stroke="#e4ef16" stroke-opacity=".35" stroke-width="2"/>
<path d="M64 24v82M42 38c-10 12-15 27-15 48M86 38c10 12 15 27 15 48M42 50c12-9 32-9 44 0M38 62c15-12 37-12 52 0M43 75c12 7 30 7 42 0" fill="none" stroke="#f4f4d7" stroke-width="5" stroke-linecap="round" stroke-linejoin="round"/>
<path d="M44 56c10-6 30-6 40 0M47 65c9 5 25 5 34 0" fill="none" stroke="#e4ef16" stroke-opacity=".45" stroke-width="3.5" stroke-linecap="round" stroke-linejoin="round"/>
</svg>