<svg xmlns="http://www.w3.org/2000/svg" viewBox="0 0 240 160">
<defs><radialGradient id="bg" cx="50%" cy="42%" r="72%"><stop offset="0" stop-color="#314022"/><stop offset=".55" stop-color="#111a13"/><stop offset="1" stop-color="#050809"/></radialGradient><filter id="g"><feGaussianBlur stdDeviation="3" result="b"/><feMerge><feMergeNode in="b"/><feMergeNode in="SourceGraphic"/></feMerge></filter></defs>
<rect width="240" height="160" rx="30" fill="url(#bg)"/>
<circle cx="120" cy="80" r="68" fill="rgba(228,239,22,.055)" stroke="#e4ef16" stroke-opacity=".20" stroke-width="2"/>
<text x="120" y="146" fill="#e4ef16" fill-opacity=".55" font-family="Arial, sans-serif" font-size="13" font-weight="900" text-anchor="middle" letter-spacing="2">CHEST</text>
<path d="M120 20c-15 0-25 11-25 25v10c-28 7-48 31-57 78h164c-9-47-29-71-57-78V45c0-14-10-25-25-25z" fill="#1d2822" stroke="#f5f5dc" stroke-opacity=".50" stroke-width="4"/>
<path d="M56 91c14-26 37-39 64-39s50 13 64 39c-34-12-94-12-128 0z" fill="#c78c62" opacity=".64"/>
<path d="M66 88c17-17 36-24 54-24s37 7 54 24c-38-8-70-8-108 0z" fill="#f4ae70" opacity=".82"/>
<path d="M120 53v70M62 87c30-13 86-13 116 0M58 107c36-12 88-12 124 0" fill="none" stroke="#f5f5dc" stroke-width="4" stroke-linecap="round" opacity=".75"/>
<g filter="url(#g)"><path d="M62 84c18-18 37-26 58-26s40 8 58 26" fill="none" stroke="#e4ef16" stroke-width="5" stroke-linecap="round"/>
<path d="M72 97c30-7 66-7 96 0" fill="none" stroke="#e4ef16" stroke-width="4" stroke-linecap="round" opacity=".72"/></g>
</svg>