<svg xmlns="http://www.w3.org/2000/svg" viewBox="0 0 180 120">
<defs><radialGradient id="bg" cx="50%" cy="45%" r="70%"><stop offset="0" stop-color="#283520"/><stop offset="1" stop-color="#071013"/></radialGradient></defs>
<rect width="180" height="120" rx="22" fill="url(#bg)"/>
<g opacity=".98"><path d="M90 15c-10 0-18 8-18 18v8c-20 5-34 21-42 57h120c-8-36-22-52-42-57v-8c0-10-8-18-18-18z" fill="#202923" stroke="#f5f5de" stroke-opacity=".45" stroke-width="3"/><path d="M43 69c10-18 27-27 47-27s37 9 47 27c-23-8-71-8-94 0z" fill="#d09b71" opacity=".55"/><path d="M47 67c14-12 27-16 43-16s29 4 43 16c-26-5-60-5-86 0z" fill="#ffb56f" opacity=".72"/><path d="M90 41v46M49 65c20-9 62-9 82 0M47 79c25-8 61-8 86 0" fill="none" stroke="#f5f5de" stroke-width="3" stroke-linecap="round" opacity=".72"/></g>
<g opacity=".9"><path d="M47 64c13-13 27-18 43-18s30 5 43 18" fill="none" stroke="#e4ef16" stroke-width="4" stroke-linecap="round"/></g>
</svg>