<svg xmlns="http://www.w3.org/2000/svg" viewBox="0 0 180 120">
<defs><radialGradient id="bg" cx="50%" cy="45%" r="70%"><stop offset="0" stop-color="#283520"/><stop offset="1" stop-color="#071013"/></radialGradient></defs>
<rect width="180" height="120" rx="22" fill="url(#bg)"/>
<g opacity=".98"><path d="M67 20h46c7 16 10 31 10 47 0 16-3 30-10 41H67c-7-11-10-25-10-41 0-16 3-31 10-47z" fill="#202923" stroke="#f5f5de" stroke-opacity=".5" stroke-width="3"/><path d="M72 31h36v66H72z" fill="#d09b71" opacity=".45"/><path d="M77 35h26v58H77z" fill="#ffb56f" opacity=".55"/><path d="M77 48h26M77 64h26M77 80h26M90 35v58M68 25c-7 19-10 45-4 75M112 25c7 19 10 45 4 75" fill="none" stroke="#f5f5de" stroke-width="3" stroke-linecap="round" opacity=".72"/></g>
<g opacity=".9"><path d="M76 48h28M76 64h28M76 80h28" fill="none" stroke="#e4ef16" stroke-width="4" stroke-linecap="round"/></g>
</svg>