<svg xmlns="http://www.w3.org/2000/svg" viewBox="0 0 240 160">
<defs><radialGradient id="bg" cx="50%" cy="42%" r="72%"><stop offset="0" stop-color="#314022"/><stop offset=".55" stop-color="#111a13"/><stop offset="1" stop-color="#050809"/></radialGradient><filter id="g"><feGaussianBlur stdDeviation="3" result="b"/><feMerge><feMergeNode in="b"/><feMergeNode in="SourceGraphic"/></feMerge></filter></defs>
<rect width="240" height="160" rx="30" fill="url(#bg)"/>
<circle cx="120" cy="80" r="68" fill="rgba(228,239,22,.055)" stroke="#e4ef16" stroke-opacity=".20" stroke-width="2"/>
<text x="120" y="146" fill="#e4ef16" fill-opacity=".55" font-family="Arial, sans-serif" font-size="13" font-weight="900" text-anchor="middle" letter-spacing="2">CORE</text>
<path d="M88 27h64c10 22 14 44 14 67 0 23-5 43-14 58H88c-9-15-14-35-14-58 0-23 4-45 14-67z" fill="#1d2822" stroke="#f5f5dc" stroke-opacity=".50" stroke-width="4"/>
<path d="M96 43h48v91H96z" fill="#c78c62" opacity=".50"/>
<path d="M104 49h32v79h-32z" fill="#f4ae70" opacity=".65"/>
<path d="M102 66h36M102 88h36M102 110h36M120 48v81M88 35c-10 27-13 64-6 105M152 35c10 27 13 64 6 105" fill="none" stroke="#f5f5dc" stroke-width="4" stroke-linecap="round" opacity=".75"/>
<g filter="url(#g)"><path d="M101 66h38M101 88h38M101 110h38M120 49v80" fill="none" stroke="#e4ef16" stroke-width="5" stroke-linecap="round"/></g>
</svg>