<svg xmlns="http://www.w3.org/2000/svg" viewBox="0 0 180 120">
<defs><radialGradient id="bg" cx="50%" cy="45%" r="70%"><stop offset="0" stop-color="#283520"/><stop offset="1" stop-color="#071013"/></radialGradient></defs>
<rect width="180" height="120" rx="22" fill="url(#bg)"/>
<g opacity=".98"><path d="M72 16c2 34-6 62-21 91M108 16c-2 34 6 62 21 91" fill="none" stroke="#f5f5de" stroke-opacity=".55" stroke-width="18" stroke-linecap="round"/><path d="M76 18c1 34-5 61-18 87M104 18c-1 34 5 61 18 87" fill="none" stroke="#d09b71" stroke-width="14" stroke-linecap="round" opacity=".58"/><path d="M79 44c6 17 12 35 15 60M101 44c-6 17-12 35-15 60" fill="none" stroke="#ffb56f" stroke-width="12" stroke-linecap="round" opacity=".7"/></g>
<g opacity=".9"><path d="M75 18c1 34-5 61-18 87M105 18c-1 34 5 61 18 87M78 47h24" fill="none" stroke="#e4ef16" stroke-width="4" stroke-linecap="round"/></g>
</svg>