<svg xmlns="http://www.w3.org/2000/svg" viewBox="0 0 240 160">
<defs><radialGradient id="bg" cx="50%" cy="42%" r="72%"><stop offset="0" stop-color="#314022"/><stop offset=".55" stop-color="#111a13"/><stop offset="1" stop-color="#050809"/></radialGradient><filter id="g"><feGaussianBlur stdDeviation="3" result="b"/><feMerge><feMergeNode in="b"/><feMergeNode in="SourceGraphic"/></feMerge></filter></defs>
<rect width="240" height="160" rx="30" fill="url(#bg)"/>
<circle cx="120" cy="80" r="68" fill="rgba(228,239,22,.055)" stroke="#e4ef16" stroke-opacity=".20" stroke-width="2"/>
<text x="120" y="146" fill="#e4ef16" fill-opacity=".55" font-family="Arial, sans-serif" font-size="13" font-weight="900" text-anchor="middle" letter-spacing="2">LEGS</text>
<path d="M96 19c2 47-8 88-30 128M144 19c-2 47 8 88 30 128" fill="none" stroke="#f5f5dc" stroke-opacity=".55" stroke-width="24" stroke-linecap="round"/>
<path d="M102 22c1 47-7 86-26 123M138 22c-1 47 7 86 26 123" fill="none" stroke="#c78c62" stroke-width="18" stroke-linecap="round" opacity=".64"/>
<path d="M106 62c10 26 18 54 21 83M134 62c-10 26-18 54-21 83" fill="none" stroke="#f4ae70" stroke-width="16" stroke-linecap="round" opacity=".76"/>
<path d="M104 58h32M94 146H73M146 146h21" fill="none" stroke="#f5f5dc" stroke-width="4" stroke-linecap="round" opacity=".75"/>
<g filter="url(#g)"><path d="M101 22c1 47-7 86-26 123M139 22c-1 47 7 86 26 123M104 62h32" fill="none" stroke="#e4ef16" stroke-width="5" stroke-linecap="round"/></g>
</svg>