<svg xmlns="http://www.w3.org/2000/svg" viewBox="0 0 240 160">
<defs><radialGradient id="bg" cx="50%" cy="42%" r="72%"><stop offset="0" stop-color="#314022"/><stop offset=".55" stop-color="#111a13"/><stop offset="1" stop-color="#050809"/></radialGradient><filter id="g"><feGaussianBlur stdDeviation="3" result="b"/><feMerge><feMergeNode in="b"/><feMergeNode in="SourceGraphic"/></feMerge></filter></defs>
<rect width="240" height="160" rx="30" fill="url(#bg)"/>
<circle cx="120" cy="80" r="68" fill="rgba(228,239,22,.055)" stroke="#e4ef16" stroke-opacity=".20" stroke-width="2"/>
<text x="120" y="146" fill="#e4ef16" fill-opacity=".55" font-family="Arial, sans-serif" font-size="13" font-weight="900" text-anchor="middle" letter-spacing="2">SHOULDERS</text>
<path d="M120 22c-15 0-25 11-25 25v8c-42 8-68 33-78 80h206c-10-47-36-72-78-80v-8c0-14-10-25-25-25z" fill="#1d2822" stroke="#f5f5dc" stroke-opacity=".50" stroke-width="4"/>
<path d="M39 116c18-37 40-52 70-48l11 17 11-17c30-4 52 11 70 48-45-14-117-14-162 0z" fill="#c78c62" opacity=".45"/>
<path d="M42 111c17-29 38-42 62-40M198 111c-17-29-38-42-62-40" fill="none" stroke="#f4ae70" stroke-width="18" stroke-linecap="round" opacity=".72"/>
<path d="M84 91h72M98 60c15-8 29-8 44 0" fill="none" stroke="#f5f5dc" stroke-width="4" stroke-linecap="round" opacity=".75"/>
<g filter="url(#g)"><path d="M42 111c18-31 39-44 63-41M198 111c-18-31-39-44-63-41" fill="none" stroke="#e4ef16" stroke-width="5" stroke-linecap="round"/></g>
</svg>