<svg xmlns="http://www.w3.org/2000/svg" viewBox="0 0 180 120">
<defs><radialGradient id="bg" cx="50%" cy="45%" r="70%"><stop offset="0" stop-color="#283520"/><stop offset="1" stop-color="#071013"/></radialGradient></defs>
<rect width="180" height="120" rx="22" fill="url(#bg)"/>
<g opacity=".98"><path d="M90 17c-10 0-18 8-18 18v7c-30 5-48 22-55 55h146c-7-33-25-50-55-55v-7c0-10-8-18-18-18z" fill="#202923" stroke="#f5f5de" stroke-opacity=".45" stroke-width="3"/><path d="M31 83c12-24 27-34 47-31l12 14 12-14c20-3 35 7 47 31-32-7-86-7-118 0z" fill="#d09b71" opacity=".42"/><path d="M34 80c12-18 26-27 42-27M146 80c-12-18-26-27-42-27" fill="none" stroke="#ffb56f" stroke-width="12" stroke-linecap="round" opacity=".7"/><path d="M65 66h50M74 43c10-5 22-5 32 0" fill="none" stroke="#f5f5de" stroke-width="3" stroke-linecap="round" opacity=".72"/></g>
<g opacity=".9"><path d="M32 81c13-20 29-30 46-28M148 81c-13-20-29-30-46-28" fill="none" stroke="#e4ef16" stroke-width="4" stroke-linecap="round"/></g>
</svg>