<svg xmlns="http://www.w3.org/2000/svg" viewBox="0 0 1200 720" role="img" aria-label="Endurance multisport hero background">
  <defs>
    <linearGradient id="sky" x1="0" y1="0" x2="1" y2="1">
      <stop offset="0" stop-color="#0b130d"/>
      <stop offset="0.45" stop-color="#182414"/>
      <stop offset="1" stop-color="#050706"/>
    </linearGradient>
    <radialGradient id="sun" cx="76%" cy="31%" r="36%">
      <stop offset="0" stop-color="#fff3a8" stop-opacity="0.70"/>
      <stop offset="0.22" stop-color="#dfff00" stop-opacity="0.28"/>
      <stop offset="0.62" stop-color="#dfff00" stop-opacity="0.06"/>
      <stop offset="1" stop-color="#dfff00" stop-opacity="0"/>
    </radialGradient>
    <linearGradient id="fade" x1="0" y1="0" x2="0" y2="1">
      <stop offset="0" stop-color="#000" stop-opacity="0.08"/>
      <stop offset="0.58" stop-color="#000" stop-opacity="0.20"/>
      <stop offset="1" stop-color="#000" stop-opacity="0.76"/>
    </linearGradient>
    <linearGradient id="path" x1="0" y1="0" x2="1" y2="0">
      <stop offset="0" stop-color="#1b260e"/>
      <stop offset="0.6" stop-color="#4a3f1a"/>
      <stop offset="1" stop-color="#0f150a"/>
    </linearGradient>
    <filter id="blur"><feGaussianBlur stdDeviation="16"/></filter>
  </defs>
  <rect width="1200" height="720" fill="url(#sky)"/>
  <rect width="1200" height="720" fill="url(#sun)"/>
  <g opacity="0.19" fill="none" stroke="#dfff00" stroke-width="2">
    <path d="M-40 120 C130 24 262 174 430 92 C606 6 756 88 930 50 C1098 14 1172 92 1240 42"/>
    <path d="M-60 170 C125 56 302 220 456 132 C650 20 760 145 972 92 C1114 56 1175 122 1248 80" opacity="0.55"/>
    <path d="M-80 612 C124 520 250 662 448 578 C672 482 764 610 1014 545 C1132 514 1190 556 1260 512" opacity="0.38"/>
    <path d="M76 690 C250 610 410 695 612 630 C790 574 930 662 1130 595" opacity="0.32" stroke-dasharray="16 18"/>
  </g>
  <g opacity="0.46">
    <path d="M0 470 C145 382 266 430 376 360 C512 274 690 332 836 250 C968 176 1090 212 1200 164 L1200 720 L0 720 Z" fill="#0d130a"/>
    <path d="M0 552 C185 450 320 530 500 438 C660 356 776 425 946 332 C1070 264 1145 304 1200 270 L1200 720 L0 720 Z" fill="#060806" opacity="0.72"/>
  </g>
  <path d="M210 720 C334 552 430 430 558 352 C678 280 784 246 902 182 C780 314 738 440 770 720 Z" fill="url(#path)" opacity="0.82"/>
  <path d="M290 720 C380 570 500 442 620 364 C724 296 804 252 868 206" fill="none" stroke="#dfff00" stroke-width="10" stroke-linecap="round" opacity="0.25" filter="url(#blur)"/>
  <g fill="#050706" opacity="0.92">
    <!-- runner -->
    <circle cx="635" cy="276" r="20"/>
    <path d="M623 302 L608 374 L644 382 L666 320 Z"/>
    <path d="M614 358 L570 452 L602 456 L635 386 Z"/>
    <path d="M647 374 L712 438 L690 462 L632 407 Z"/>
    <path d="M616 324 L564 356 L552 337 L604 300 Z"/>
    <path d="M652 326 L710 360 L699 381 L640 352 Z"/>
    <!-- cyclist -->
    <circle cx="812" cy="281" r="18"/>
    <path d="M794 304 L838 332 L814 384 L764 352 Z"/>
    <path d="M812 382 L770 462 L742 452 L780 370 Z"/>
    <path d="M824 377 L894 454 L868 468 L804 395 Z"/>
    <circle cx="750" cy="486" r="54" fill="none" stroke="#050706" stroke-width="13"/>
    <circle cx="922" cy="486" r="54" fill="none" stroke="#050706" stroke-width="13"/>
    <path d="M750 486 L810 398 L860 486 L750 486 L812 486 L922 486 L860 486 L900 420" fill="none" stroke="#050706" stroke-width="12" stroke-linecap="round" stroke-linejoin="round"/>
    <!-- walker -->
    <circle cx="982" cy="288" r="18"/>
    <path d="M966 312 L954 392 L990 396 L1008 326 Z"/>
    <path d="M958 382 L920 468 L950 472 L980 398 Z"/>
    <path d="M990 389 L1044 456 L1022 476 L972 414 Z"/>
    <path d="M962 338 L912 374 L900 354 L950 318 Z"/>
    <path d="M996 332 L1046 358 L1038 380 L984 358 Z"/>
  </g>
  <rect width="1200" height="720" fill="url(#fade)"/>
  <rect width="1200" height="720" fill="#000" opacity="0.18"/>
</svg>
