<svg xmlns="http://www.w3.org/2000/svg" viewBox="0 0 1200 700" role="img" aria-label="Kayaking training image">
<defs>
  <linearGradient id="bg" x1="0" x2="1" y1="0" y2="1">
    <stop offset="0" stop-color="#103442"/>
    <stop offset="0.55" stop-color="#132116"/>
    <stop offset="1" stop-color="#050706"/>
  </linearGradient>
  <radialGradient id="glow" cx="78%" cy="18%" r="56%">
    <stop offset="0" stop-color="#e4ef16" stop-opacity=".33"/>
    <stop offset=".58" stop-color="#e4ef16" stop-opacity=".07"/>
    <stop offset="1" stop-color="#e4ef16" stop-opacity="0"/>
  </radialGradient>
  <filter id="soft"><feGaussianBlur stdDeviation="18"/></filter>
  <linearGradient id="line" x1="0" x2="1"><stop offset="0" stop-color="#e4ef16"/><stop offset=".62" stop-color="#f7ffd6"/><stop offset="1" stop-color="#e4ef16" stop-opacity=".15"/></linearGradient>
</defs>
<rect width="1200" height="700" fill="url(#bg)"/>
<rect width="1200" height="700" fill="url(#glow)"/>
<path d="M0 550 C190 470 330 610 510 520 C690 430 810 520 1200 405 L1200 700 L0 700 Z" fill="#000" opacity=".38"/>
<path d="M70 535 C260 570 390 505 555 535 C760 573 850 492 1120 540" fill="none" stroke="url(#line)" stroke-width="9" stroke-linecap="round" opacity=".9"/>
<g opacity=".14" filter="url(#soft)"><circle cx="930" cy="150" r="145" fill="#e4ef16"/></g>
<path d="M190 480 C360 418 710 418 930 480 C720 545 405 545 190 480Z" fill="#e4ef16" opacity=".72"/><g fill="none" stroke="#f5f7dc" stroke-width="24" stroke-linecap="round" stroke-linejoin="round" opacity=".86" transform="translate(455 155)"><circle cx="152" cy="74" r="35" fill="#f5f7dc" stroke="none"/><path d="M146 125 L185 230"/><path d="M95 210 L278 90"/><path d="M92 210 L45 240 M278 90 L330 58"/></g><path d="M0 560 C170 515 260 600 400 555 C570 500 690 600 865 548 C1015 504 1100 555 1200 525" fill="none" stroke="#ffffff" stroke-opacity=".28" stroke-width="8"/>
<rect x="0" y="0" width="1200" height="700" fill="url(#fade)" opacity="0"/>
<rect width="1200" height="700" fill="#000" opacity=".08"/>
</svg>