<svg xmlns="http://www.w3.org/2000/svg" viewBox="0 0 1200 700" role="img" aria-label="Mountain Biking training image">
<defs>
  <linearGradient id="bg" x1="0" x2="1" y1="0" y2="1">
    <stop offset="0" stop-color="#1f321f"/>
    <stop offset="0.55" stop-color="#132116"/>
    <stop offset="1" stop-color="#050706"/>
  </linearGradient>
  <radialGradient id="glow" cx="78%" cy="18%" r="56%">
    <stop offset="0" stop-color="#e4ef16" stop-opacity=".33"/>
    <stop offset=".58" stop-color="#e4ef16" stop-opacity=".07"/>
    <stop offset="1" stop-color="#e4ef16" stop-opacity="0"/>
  </radialGradient>
  <filter id="soft"><feGaussianBlur stdDeviation="18"/></filter>
  <linearGradient id="line" x1="0" x2="1"><stop offset="0" stop-color="#e4ef16"/><stop offset=".62" stop-color="#f7ffd6"/><stop offset="1" stop-color="#e4ef16" stop-opacity=".15"/></linearGradient>
</defs>
<rect width="1200" height="700" fill="url(#bg)"/>
<rect width="1200" height="700" fill="url(#glow)"/>
<path d="M0 550 C190 470 330 610 510 520 C690 430 810 520 1200 405 L1200 700 L0 700 Z" fill="#000" opacity=".38"/>
<path d="M75 560 C200 490 300 620 460 500 C640 365 775 575 1120 405" fill="none" stroke="url(#line)" stroke-width="9" stroke-linecap="round" opacity=".9"/>
<g opacity=".14" filter="url(#soft)"><circle cx="930" cy="150" r="145" fill="#e4ef16"/></g>
<g opacity=".45" fill="#294026"><path d="M90 535 l180 -290 180 290z"/><path d="M665 535 l210 -330 220 330z"/></g><g fill="none" stroke="#f5f7dc" stroke-width="20" stroke-linecap="round" stroke-linejoin="round" opacity=".88" transform="translate(245 162) rotate(-7)"><circle cx="155" cy="315" r="88"/><circle cx="575" cy="315" r="88"/><path d="M155 315 L320 165 L395 315 L155 315 M395 315 L575 315 L445 165 L320 165"/><circle cx="365" cy="55" r="32" fill="#f5f7dc" stroke="none"/><path d="M348 96 L320 165 L445 165 L530 230"/><path d="M445 165 L520 105"/></g>
<rect x="0" y="0" width="1200" height="700" fill="url(#fade)" opacity="0"/>
<rect width="1200" height="700" fill="#000" opacity=".08"/>
</svg>