<svg xmlns="http://www.w3.org/2000/svg" viewBox="0 0 1200 700" role="img" aria-label="Swimming training image">
<defs>
  <linearGradient id="bg" x1="0" x2="1" y1="0" y2="1">
    <stop offset="0" stop-color="#123645"/>
    <stop offset="0.55" stop-color="#132116"/>
    <stop offset="1" stop-color="#050706"/>
  </linearGradient>
  <radialGradient id="glow" cx="78%" cy="18%" r="56%">
    <stop offset="0" stop-color="#e4ef16" stop-opacity=".33"/>
    <stop offset=".58" stop-color="#e4ef16" stop-opacity=".07"/>
    <stop offset="1" stop-color="#e4ef16" stop-opacity="0"/>
  </radialGradient>
  <filter id="soft"><feGaussianBlur stdDeviation="18"/></filter>
  <linearGradient id="line" x1="0" x2="1"><stop offset="0" stop-color="#e4ef16"/><stop offset=".62" stop-color="#f7ffd6"/><stop offset="1" stop-color="#e4ef16" stop-opacity=".15"/></linearGradient>
</defs>
<rect width="1200" height="700" fill="url(#bg)"/>
<rect width="1200" height="700" fill="url(#glow)"/>
<path d="M0 550 C190 470 330 610 510 520 C690 430 810 520 1200 405 L1200 700 L0 700 Z" fill="#000" opacity=".38"/>
<path d="M55 525 C205 470 310 590 470 520 C645 445 780 585 1130 500" fill="none" stroke="url(#line)" stroke-width="9" stroke-linecap="round" opacity=".9"/>
<g opacity=".14" filter="url(#soft)"><circle cx="930" cy="150" r="145" fill="#e4ef16"/></g>
<path d="M0 500 C130 450 225 540 345 500 C480 455 585 545 725 500 C870 450 990 540 1200 485 L1200 700 L0 700 Z" fill="#0b2634" opacity=".7"/><g fill="none" stroke="#f5f7dc" stroke-width="26" stroke-linecap="round" stroke-linejoin="round" opacity=".88" transform="translate(330 185)"><circle cx="310" cy="98" r="35" fill="#f5f7dc" stroke="none"/><path d="M260 130 C190 180 145 180 80 135"/><path d="M330 135 C410 185 465 185 540 140"/></g><path d="M0 520 C130 478 230 555 350 520 C485 480 585 555 725 520 C870 480 990 555 1200 505" fill="none" stroke="#ffffff" stroke-opacity=".34" stroke-width="10"/>
<rect x="0" y="0" width="1200" height="700" fill="url(#fade)" opacity="0"/>
<rect width="1200" height="700" fill="#000" opacity=".08"/>
</svg>