<svg xmlns="http://www.w3.org/2000/svg" viewBox="0 0 1200 700" role="img" aria-label="Trail Running training image">
<defs>
  <linearGradient id="bg" x1="0" x2="1" y1="0" y2="1">
    <stop offset="0" stop-color="#1a3c21"/>
    <stop offset="0.55" stop-color="#132116"/>
    <stop offset="1" stop-color="#050706"/>
  </linearGradient>
  <radialGradient id="glow" cx="78%" cy="18%" r="56%">
    <stop offset="0" stop-color="#e4ef16" stop-opacity=".33"/>
    <stop offset=".58" stop-color="#e4ef16" stop-opacity=".07"/>
    <stop offset="1" stop-color="#e4ef16" stop-opacity="0"/>
  </radialGradient>
  <filter id="soft"><feGaussianBlur stdDeviation="18"/></filter>
  <linearGradient id="line" x1="0" x2="1"><stop offset="0" stop-color="#e4ef16"/><stop offset=".62" stop-color="#f7ffd6"/><stop offset="1" stop-color="#e4ef16" stop-opacity=".15"/></linearGradient>
</defs>
<rect width="1200" height="700" fill="url(#bg)"/>
<rect width="1200" height="700" fill="url(#glow)"/>
<path d="M0 550 C190 470 330 610 510 520 C690 430 810 520 1200 405 L1200 700 L0 700 Z" fill="#000" opacity=".38"/>
<path d="M80 560 C220 498 360 612 500 510 C650 402 820 495 1110 420" fill="none" stroke="url(#line)" stroke-width="9" stroke-linecap="round" opacity=".9"/>
<g opacity=".14" filter="url(#soft)"><circle cx="930" cy="150" r="145" fill="#e4ef16"/></g>
<g opacity=".65" fill="#263f26"><path d="M100 520 l120 -230 120 230z"/><path d="M780 520 l150 -285 155 285z"/><path d="M580 520 l95 -190 105 190z"/></g><g fill="none" stroke="#f5f7dc" stroke-width="24" stroke-linecap="round" stroke-linejoin="round" opacity=".86" transform="translate(470 145) rotate(-8)"><circle cx="160" cy="65" r="34" fill="#f5f7dc" stroke="none"/><path d="M145 122 L90 210 L178 245 L235 350"/><path d="M96 208 L18 295"/><path d="M176 244 L100 365"/><path d="M150 138 L250 158 L310 105"/></g>
<rect x="0" y="0" width="1200" height="700" fill="url(#fade)" opacity="0"/>
<rect width="1200" height="700" fill="#000" opacity=".08"/>
</svg>