<svg xmlns="http://www.w3.org/2000/svg" viewBox="0 0 1200 700" role="img" aria-label="Training training image">
<defs>
  <linearGradient id="bg" x1="0" x2="1" y1="0" y2="1">
    <stop offset="0" stop-color="#1e2e1d"/>
    <stop offset="0.55" stop-color="#132116"/>
    <stop offset="1" stop-color="#050706"/>
  </linearGradient>
  <radialGradient id="glow" cx="78%" cy="18%" r="56%">
    <stop offset="0" stop-color="#e4ef16" stop-opacity=".33"/>
    <stop offset=".58" stop-color="#e4ef16" stop-opacity=".07"/>
    <stop offset="1" stop-color="#e4ef16" stop-opacity="0"/>
  </radialGradient>
  <filter id="soft"><feGaussianBlur stdDeviation="18"/></filter>
  <linearGradient id="line" x1="0" x2="1"><stop offset="0" stop-color="#e4ef16"/><stop offset=".62" stop-color="#f7ffd6"/><stop offset="1" stop-color="#e4ef16" stop-opacity=".15"/></linearGradient>
</defs>
<rect width="1200" height="700" fill="url(#bg)"/>
<rect width="1200" height="700" fill="url(#glow)"/>
<path d="M0 550 C190 470 330 610 510 520 C690 430 810 520 1200 405 L1200 700 L0 700 Z" fill="#000" opacity=".38"/>
<path d="M85 545 C245 505 390 565 555 520 C755 465 875 555 1120 505" fill="none" stroke="url(#line)" stroke-width="9" stroke-linecap="round" opacity=".9"/>
<g opacity=".14" filter="url(#soft)"><circle cx="930" cy="150" r="145" fill="#e4ef16"/></g>
<g fill="none" stroke="#f5f7dc" stroke-width="24" stroke-linecap="round" stroke-linejoin="round" opacity=".88" transform="translate(330 145)"><path d="M40 250 H520"/><path d="M110 210 V290 M450 210 V290"/><circle cx="280" cy="76" r="36" fill="#f5f7dc" stroke="none"/><path d="M250 132 L210 245 L282 286 L350 400"/><path d="M214 245 L120 365"/><path d="M258 150 L160 176"/><path d="M275 150 L375 176"/></g>
<rect x="0" y="0" width="1200" height="700" fill="url(#fade)" opacity="0"/>
<rect width="1200" height="700" fill="#000" opacity=".08"/>
</svg>